<?xml version="1.0"?>
<svg xmlns="http://www.w3.org/2000/svg" viewBox="0 0 50 50">
    <path style="text-indent:0;text-align:start;line-height:normal;text-transform:none;block-progression:tb;-inkscape-font-specification:Sans" d="M 4.8125 5 A 1.001098 1.001098 0 0 0 5 7 L 46 7 L 46 39 L 20 39 L 20 41 L 47 41 C 47.56503 41 48 41.43497 48 42 L 48 43 L 20 43 L 20 45 L 49 45 A 1.0001 1.0001 0 0 0 50 44 L 50 42 C 50 40.708013 49.155736 39.605727 48 39.1875 L 48 6 A 1.0001 1.0001 0 0 0 47 5 L 5 5 A 1.0001 1.0001 0 0 0 4.90625 5 A 1.001098 1.001098 0 0 0 4.8125 5 z M 10 11 C 6.1458513 11 3 14.145852 3 18 C 3 21.854148 6.1458513 25 10 25 C 13.854148 25 17 21.854148 17 18 C 17 14.145852 13.854148 11 10 11 z M 24 11 L 24 12 L 24 16.15625 C 23.682461 16.060925 23.356955 16 23 16 C 21.343146 16 20 17.119288 20 18.5 C 20 19.880712 21.343146 21 23 21 C 24.500727 21 25.716501 20.074081 25.9375 18.875 A 1.0001 1.0001 0 0 0 25.96875 18.8125 C 25.970311 18.802232 25.967339 18.791556 25.96875 18.78125 A 1.0001 1.0001 0 0 0 26 18.5625 A 1.0001 1.0001 0 0 0 26 18.5 L 26 13.21875 C 26.782108 13.445303 27.375 13.78125 27.375 13.78125 A 1.0004882 1.0004882 0 1 0 28.625 12.21875 C 28.625 12.21875 27.151375 11 25 11 L 24 11 z M 10 13 C 12.773268 13 15 15.226732 15 18 C 15 20.773268 12.773268 23 10 23 C 7.2267317 23 5 20.773268 5 18 C 5 15.226732 7.2267317 13 10 13 z M 10 17 C 7.56 17 6.46875 19.27875 6.46875 19.71875 C 6.46875 20.38475 7.731 22 10 22 C 12.269 22 13.53125 20.32375 13.53125 19.71875 C 13.53125 19.26475 12.44 17 10 17 z M 29.34375 21.71875 C 29.120146 21.713466 28.906458 21.742678 28.6875 21.78125 C 27.81167 21.935539 27.009592 22.434809 26.46875 23.21875 L 22.59375 28.8125 L 18.96875 27.59375 C 17.769378 27.193595 16.513266 27 15.25 27 L 8 27 C 4.6983746 27 2 29.698375 2 33 L 2 45 L 4 45 L 4 33 C 4 30.779625 5.7796254 29 8 29 L 15.25 29 C 16.298734 29 17.349122 29.168155 18.34375 29.5 L 22.6875 30.9375 A 1.0001 1.0001 0 0 0 23.8125 30.5625 L 28.09375 24.34375 C 28.556066 23.673632 29.462739 23.52858 30.125 24 C 30.771829 24.459888 30.918681 25.345121 30.46875 26 L 24.8125 34.25 C 24.566309 34.608188 24.105392 34.745623 23.6875 34.625 L 17.28125 32.78125 A 1.0001 1.0001 0 0 0 16 33.75 L 16 45 L 18 45 L 18 35.09375 L 23.15625 36.5625 C 24.394358 36.919877 25.707691 36.436812 26.4375 35.375 L 32.125 27.125 C 33.181069 25.587879 32.800421 23.455112 31.28125 22.375 C 30.699348 21.960783 30.014561 21.734602 29.34375 21.71875 z" overflow="visible" font-family="Sans"/>
</svg>
