<?xml version="1.0" encoding="utf-8"?>
<!-- Svg Vector Icons : http://www.onlinewebfonts.com/icon -->
<!DOCTYPE svg PUBLIC "-//W3C//DTD SVG 1.1//EN" "http://www.w3.org/Graphics/SVG/1.1/DTD/svg11.dtd">
<svg version="1.1" xmlns="http://www.w3.org/2000/svg" xmlns:xlink="http://www.w3.org/1999/xlink" x="0px" y="0px" viewBox="0 0 1000 1000" enable-background="new 0 0 1000 1000" xml:space="preserve">
<metadata> Svg Vector Icons : http://www.onlinewebfonts.com/icon </metadata>
<g><g transform="translate(0.000000,511.000000) scale(0.100000,-0.100000)"><path d="M3145.2,4512.1c-266.5-98-417.3-393.8-339-664.2c113.6-387.9,581.9-529,883.6-264.5c172.4,150.9,231.2,384,154.8,609.3c-37.2,107.8-160.6,242.9-272.3,297.8C3472.3,4537.5,3247,4549.3,3145.2,4512.1z"/><path d="M6413.2,4492.5c-207.7-96-338.9-317.4-317.4-540.7c17.6-199.8,123.4-354.6,315.4-456.5c121.5-64.7,340.9-60.7,474.1,9.8c511.4,268.4,327.2,1034.5-246.9,1034.5C6546.4,4539.5,6483.7,4525.8,6413.2,4492.5z"/><path d="M2720,3254.2c-37.2-15.7-82.3-43.1-101.9-60.7c-33.3-29.4-47-29.4-182.2,0c-242.9,54.9-225.3,68.6-225.3-197.9c0-176.3-7.8-241-29.4-274.3c-29.4-41.1-27.4-47,39.2-111.7c37.2-39.2,94-115.6,127.3-172.4l58.8-101.9v290c0,266.5,2,288,37.2,288c99.9,0,777.8-156.7,822.9-192l50.9-37.2l5.9-562.3c2-307.6-1.9-560.3-9.8-560.3c-5.9,0-27.4,13.7-45.1,29.4c-15.7,15.7-119.5,43.1-225.3,60.7l-195.9,31.3l-154.8-54.9c-86.2-29.4-146.9-56.8-137.1-58.8c9.8-3.9,145-29.4,299.8-56.8c225.3-41.1,293.9-60.7,339-99.9c109.7-90.1,229.2-86.2,342.9,11.8c35.3,31.4,86.2,58.8,109.7,58.8c23.5,2,152.8,21.6,288,47l244.9,43.1l-162.6,54.9c-158.7,52.9-168.5,54.9-323.3,31.3c-162.6-25.5-227.3-47-252.7-86.2c-7.8-11.8-15.7,235.1-15.7,546.6V2688l64.7,43.1c43.1,29.4,170.5,64.7,417.3,111.7c194,39.2,368.3,70.5,386,70.5c27.4,0,33.3-33.3,37.2-256.7l5.9-258.6l76.4,111.7c43.1,60.7,94,119.5,113.6,131.3c35.3,19.6,35.3,21.6-3.9,70.5c-35.3,45.1-39.2,78.4-39.2,282.1c0,174.4-5.9,233.1-23.5,233.1c-13.7,0-98-13.7-186.1-31.3l-158.7-31.4l-74.5,54.9l-72.5,56.8l-589.7,3.9C2884.6,3283.6,2776.8,3279.7,2720,3254.2z"/><path d="M6031.1,3264c-27.4-11.8-68.6-39.2-92.1-60.7c-45.1-41.1-47-41.1-197.9-9.8c-237.1,50.9-219.4,68.6-219.4-197.9c0-170.5-7.8-241-29.4-272.3c-25.5-37.2-23.5-45.1,41.2-113.6c37.2-41.1,94-119.5,125.4-174.4l58.8-99.9v291.9v291.9l84.2-13.7c227.3-33.3,701.4-145,746.5-174.4l50.9-33.3v-558.4c0-307.6-7.8-558.4-15.7-558.4c-7.8,0-23.5,7.8-35.3,17.6c-9.8,11.8-103.8,33.3-209.6,52.9l-192,31.3l-150.9-54.9c-82.3-29.4-141.1-56.8-131.3-58.8c11.8-3.9,146.9-29.4,303.7-58.8c188.1-33.3,297.8-62.7,323.3-86.2c58.8-50.9,117.5-78.4,176.3-78.4c60.7,0,158.7,47,182.2,88.2c9.8,21.6,113.6,47,329.1,86.2l311.5,54.9l-174.4,52.9l-174.4,54.9l-176.3-31.3c-125.4-21.6-190-43.1-221.4-72.5l-47-43.1v570.1v572.1l74.5,47c54.9,37.2,160.7,66.6,438.9,119.5c201.8,37.2,380.1,68.6,395.8,68.6c25.5,0,31.3-43.1,35.3-256.7l5.9-258.6l64.6,99.9c35.3,54.9,86.2,117.6,111.7,137.1c47,37.2,47,39.2,9.8,72.5c-35.3,31.4-39.2,60.7-39.2,278.2c0,170.4-5.9,241-23.5,241c-11.7,0-96-13.7-186.1-31.3l-164.6-29.4l-72.5,54.9l-72.5,54.9l-597.6,3.9C6307.3,3281.7,6060.5,3275.8,6031.1,3264z"/><path d="M1491.6,2594c-352.7-131.3-472.2-587.8-229.2-871.9c78.4-92.1,233.1-174.4,362.5-192c199.8-27.4,425.1,94.1,534.9,286c54.9,96,60.7,125.4,60.7,264.5c0,121.5-9.8,174.4-43.1,235.1c-103.8,194-286,303.7-495.7,301.7C1611.1,2617.5,1526.8,2605.7,1491.6,2594z"/><path d="M4741.9,2568.5c-340.9-170.4-409.5-630.9-131.3-887.5c119.5-109.7,209.6-145,372.3-145c164.6-2,248.8,31.3,370.3,143c291.9,268.4,213.5,736.7-152.8,903.2C5077,2639,4871.2,2633.2,4741.9,2568.5z"/><path d="M8058.9,2572.4c-109.7-50.9-227.3-170.5-276.2-280.2c-49-111.7-47-327.2,3.9-438.9c94.1-203.8,280.2-319.4,507.5-317.4c160.7,0,250.8,35.3,366.4,139.1c233.1,209.6,233.1,605.4,0,809.2c-109.7,98-211.6,135.2-366.4,135.2C8190.2,2619.4,8133.4,2607.7,8058.9,2572.4z"/><path d="M2422.2,2008.2c-7.8-111.7-23.5-172.4-70.5-266.5c-35.3-66.6-58.8-121.5-54.9-121.5c3.9,0,111.7,21.6,241,47c278.2,56.8,386,98,436.9,164.6c50.9,64.7,52.9,197.9,2,260.6c-35.3,45.1-52.9,47-291.9,52.9l-252.7,7.8L2422.2,2008.2z"/><path d="M3744.7,2119.8c-49-35.3-86.2-145-70.5-209.6c29.4-117.5,135.2-172.4,464.3-239c137.1-27.4,252.7-50.9,256.7-50.9s-19.6,50.9-50.9,113.6c-58.8,115.6-105.8,315.4-90.1,378.1c9.8,35.3-5.9,37.2-229.2,37.2C3842.6,2149.2,3776,2141.4,3744.7,2119.8z"/><path d="M5733.3,2012.1c-7.8-99.9-27.4-170.5-70.5-260.6c-33.3-66.6-58.8-123.4-54.9-125.4c9.8-9.8,489.8,94,552.5,121.5c143,58.8,199.8,184.2,143,309.6c-33.3,74.5-99.9,92.1-338.9,92.1h-221.4L5733.3,2012.1z"/><path d="M7040.1,2104.2c-72.5-62.7-86.2-182.2-29.4-254.7c64.7-82.3,170.5-125.4,436.9-180.3c133.2-27.4,248.8-49,252.8-49s-21.6,58.8-56.8,133.2c-45.1,92.1-68.6,170.5-78.4,264.5l-11.7,131.3h-231.2C7110.6,2149.2,7087.1,2145.3,7040.1,2104.2z"/><path d="M1064.4,1279.3c-31.4-13.7-74.4-43.1-94-64.7c-33.3-37.2-35.3-37.2-195.9-3.9c-88.2,19.6-166.5,37.2-174.4,37.2c-9.8,0-15.7-99.9-15.7-223.3V801.3L435.5,568.1C261.2,297.8,124,25.4,104.4-82.3C73.1-268.5,210.2-386,457.1-384.1c145,1.9,591.7,84.2,728.8,135.2c101.9,37.2,182.2,127.4,182.2,203.8c0,176.3-88.2,223.4-401.6,213.6L751,160.6l-5.9,389.9l-3.9,387.9l43.1-9.8c25.5-5.9,203.8-43.1,397.7-82.3c194-39.2,376.2-86.2,405.6-103.8l54.9-31.4V144.9v-564.3l-43.1,23.5c-23.5,13.7-125.4,39.2-225.3,58.8l-182.2,35.3l-137.1-51c-76.4-27.4-131.3-56.8-123.4-64.6c7.8-7.9,131.3-35.3,270.4-58.8c205.7-35.3,270.4-52.9,335-98c43.1-31.3,101.9-62.7,127.3-68.6c60.7-15.7,148.9,17.6,213.6,76.4c39.2,37.2,101.9,54.9,303.7,88.2c362.5,62.7,358.5,58.8,170.5,119.5l-164.6,52.9L2004.9-339c-113.6-19.6-199.8-45.1-225.3-68.6l-39.2-35.3v566.2v566.2l70.5,45.1c49,33.3,180.2,66.6,464.3,121.5c217.5,43.1,397.7,78.4,401.6,78.4c2,0,3.9-176.3,3.9-389.9V154.7l-260.6,1.9c-305.6,3.9-354.6-11.7-389.9-125.4c-41.1-141.1,37.2-239,239-299.8c188.1-56.8,670.1-131.3,754.3-117.5c113.6,17.6,201.8,78.4,246.9,170.5c37.2,72.5,39.2,90.1,19.6,182.2c-13.7,54.9-52.9,160.7-88.2,235.1c-76.4,160.6-272.3,482-315.4,517.2c-23.5,19.6-29.4,74.4-29.4,278.2v252.7l-72.5-13.7c-41.1-5.9-131.3-23.5-201.8-37.2l-125.4-25.5l-74.5,66.6l-74.4,66.6h-593.6C1268.2,1304.8,1109.5,1298.9,1064.4,1279.3z"/><path d="M4312.9,1242.1l-96-64.7l-164.6,35.3c-92.1,17.6-172.4,33.3-180.3,35.3c-9.8,0-15.7-101.9-15.7-227.3V791.5L3727,585.8C3568.3,333,3435.1,74.4,3403.8-47.1c-54.9-205.7,84.3-340.9,344.8-339c178.3,3.9,636.8,96,770,154.8c129.3,58.8,178.3,148.9,143,268.4c-33.3,109.7-74.5,123.4-354.6,123.4h-244.9l-5.9,389.9l-3.9,387.9l43.1-9.8c25.5-5.9,203.8-43.1,397.7-82.3c209.6-41.1,372.3-84.2,401.6-105.8l49-35.3l5.9-574c3.9-572.1,3.9-574.1-35.3-538.8c-23.5,21.5-113.6,49-229.2,68.6l-190,35.3l-146.9-54.9c-84.3-31.3-137.1-58.8-119.5-64.6c15.7-5.9,146.9-31.4,291.9-54.9c203.8-35.3,274.3-54.9,317.4-90.1c117.6-99.9,266.5-99.9,344.8,2c29.4,37.2,80.3,50.9,299.8,88.2c374.2,62.7,368.3,58.8,172.4,119.5l-170.4,52.9L5308.2-339c-103.9-19.6-194-47-217.5-68.6c-39.2-35.3-39.2-33.3-39.2,531v566.2l70.5,45.1c49,33.3,180.2,66.6,464.3,121.5c217.5,43.1,397.7,78.4,401.6,78.4c2,0,3.9-176.3,3.9-393.8V146.9l-239,11.8c-270.4,13.7-360.5-5.9-401.6-86.2c-64.6-127.3,2-264.5,156.7-321.3c131.3-49,580-133.2,728.8-135.2c111.7-3.9,152.8,3.9,217.5,41.1c156.7,92.1,186.1,231.2,96,460.4c-58.8,143-233.2,448.7-323.3,562.3c-58.8,74.4-58.8,76.4-58.8,321.3v248.8l-72.5-13.7c-41.1-5.9-131.3-23.5-201.8-37.2c-123.4-25.5-129.3-25.5-176.3,17.6c-94,88.2-109.7,90.1-721,90.1h-587.8L4312.9,1242.1z"/><path d="M7655.3,1267.6c-37.2-19.6-80.3-49-92.1-64.7c-21.6-23.5-47-23.5-195.9,7.8c-94,19.6-176.3,35.3-184.2,37.2c-9.8,0-15.7-101.9-15.7-227.3V793.4l-131.3-207.7c-178.3-282.1-315.4-556.4-331.1-664.2c-17.6-121.5,25.5-207.7,133.2-264.5c113.6-58.8,282.1-54.9,623,13.7c413.4,82.3,509.4,139.1,509.4,303.7c0,72.5-9.8,99.9-50.9,139.1c-49,45.1-60.7,47-303.7,45.1l-252.8-2v389.9v391.8l45.1-9.8c23.5-5.9,201.8-43.1,395.8-82.3c209.6-41.1,372.3-84.2,401.6-105.8l49-35.3l5.9-574c3.9-572.1,3.9-574.1-35.3-538.8c-23.5,21.5-111.7,47-229.2,68.6l-192,33.3l-143-49c-78.4-27.4-135.2-56.8-127.4-62.7c9.8-7.9,139.1-35.3,288-60.7c225.3-39.2,284.1-56.8,338.9-99.9c117.6-92.1,231.2-88.2,325.2,11.8c35.3,37.2,86.2,52.9,297.8,88.2c362.5,60.7,358.5,58.8,172.4,121.5l-158.7,52.9l-178.3-33.3c-103.8-19.6-193.9-49-217.5-70.5c-39.2-35.3-39.2-35.3-39.2,531v566.2l70.5,45.1c50.9,33.3,180.3,66.6,466.3,123.4c215.5,41.1,395.8,76.4,399.7,76.4c2,0,3.9-176.3,3.9-393.8V148.8l-219.4,11.8c-338.9,21.6-446.7-23.5-446.7-188.1c0-92.1,68.6-178.3,174.4-219.4c117.6-47,583.8-135.2,736.7-139.1c172.4-2,270.4,49,325.2,174.4c33.3,76.4,35.3,90.1,7.9,192c-39.2,148.9-158.7,384-313.5,611.3l-127.4,188.1v235.1c0,127.4-5.9,233.1-13.7,233.1c-9.8-2-94-17.6-192-39.2l-174.4-35.3l-74.4,66.6l-74.5,66.6h-593.6C7776.8,1304.8,7720,1302.8,7655.3,1267.6z"/><path d="M897.9-587.8c0-448.7,84.2-3503.1,99.9-3556c60.7-231.2,407.5-231.2,466.3,0c9.8,39.2,23.5,227.3,31.3,415.4c25.5,719,68.6,1741.8,80.3,1916.1l11.8,180.3h76.4h76.4v-141.1c0-78.4,7.8-354.6,19.6-613.2c9.8-258.6,27.4-748.4,39.2-1087.4s29.4-644.6,41.1-679.9c11.8-35.3,47-86.2,78.4-113.6c80.3-66.6,241-70.5,321.3-5.9c101.9,80.3,115.6,145,123.4,593.6c2,227.3,17.6,1020.8,31.4,1763.3c15.7,744.5,23.5,1355.8,19.6,1359.7c-3.9,3.9-103.8-11.8-223.3-33.3c-166.5-31.4-239-54.9-307.6-101.9c-123.4-80.3-233.1-80.3-344.8-2c-66.6,47-135.2,68.6-348.8,107.8c-146.9,27.4-272.3,50.9-278.2,50.9C903.8-534.9,897.9-558.4,897.9-587.8z"/><path d="M4209-754.4c0-182.2,33.3-1726.1,64.7-3062.3c7.8-327.2,33.3-419.3,133.2-470.2c72.5-39.2,213.6-37.2,268.4,1.9c96,66.6,107.8,123.4,125.4,634.8c9.8,264.5,33.3,824.8,50.9,1244.1l33.3,764.1l72.5,5.9l70.5,5.9l11.8-143c5.9-78.4,25.5-556.4,41.1-1063.9c43.1-1330.3,39.2-1265.7,78.4-1347.9c19.6-41.2,58.8-86.2,90.1-101.9c80.3-43.1,225.3-37.2,291.9,9.8c115.6,82.3,113.6,33.3,148.9,1947.5c19.6,965.9,29.4,1761.3,23.5,1767.2c-5.9,5.9-98-3.9-203.8-23.5c-146.9-23.5-221.4-49-305.7-98c-129.3-78.4-254.7-90.1-331.1-29.4c-86.2,64.6-131.3,80.3-391.8,129.3c-141.1,27.4-260.6,49-264.5,49C4212.9-534.9,4209-634.8,4209-754.4z"/><path d="M7510.3-734.8c5.9-111.7,23.5-858.1,39.2-1661.4c33.3-1683,35.3-1718.3,76.4-1800.5c58.8-111.7,221.4-152.8,346.8-88.2c105.8,52.9,119.5,121.5,137.1,683.8c9.8,280.2,31.4,803.3,47,1161.8c15.7,358.5,29.4,685.7,29.4,728.8c0,78.4,0,78.4,76.4,78.4h74.4l11.7-199.8c7.9-111.7,27.4-656.3,45.1-1210.8c17.6-554.5,41.2-1044.3,51-1085.4c9.8-43.1,43.1-101.9,74.4-133.2c47-45.1,72.5-54.9,154.8-54.9c190,0,276.3,88.2,288,299.8c13.7,209.6,70.5,3446.3,60.7,3454.1c-15.7,15.7-393.8-54.8-454.5-86.2c-31.3-15.7-80.3-45.1-105.8-64.6c-72.5-58.8-205.7-49-313.5,19.6c-68.6,45.1-152.8,70.5-354.6,107.8c-145,27.4-270.4,50.9-278.2,50.9C7508.4-534.9,7504.4-625,7510.3-734.8z"/></g></g>
</svg>