<?xml version="1.0" encoding="utf-8"?>
<!-- Svg Vector Icons : http://www.onlinewebfonts.com/icon -->
<!DOCTYPE svg PUBLIC "-//W3C//DTD SVG 1.1//EN" "http://www.w3.org/Graphics/SVG/1.1/DTD/svg11.dtd">
<svg version="1.1" xmlns="http://www.w3.org/2000/svg" xmlns:xlink="http://www.w3.org/1999/xlink" x="0px" y="0px" viewBox="0 0 1000 1000" enable-background="new 0 0 1000 1000" xml:space="preserve">
<metadata> Svg Vector Icons : http://www.onlinewebfonts.com/icon </metadata>
<g><g transform="translate(0.000000,511.000000) scale(0.100000,-0.100000)"><path d="M5848.6,4026.9C5733.5,3752.7,4438.1,460.9,4438.1,444.2c0-16.7,709.4-23,2354.3-23h2352.2l148.6,127.7c435.3,374.6,604.8,751.3,452,1008.7c-29.3,52.3-106.7,142.3-171.6,200.9c-452,399.7-1389.6,506.4-2494.5,280.4c-157-33.5-180-33.5-230.2-4.2c-79.5,44-144.4,171.6-173.7,343.2c-23,140.2-16.8,763.8,12.5,1056.8c12.6,115.1,12.6,115.1-67,167.4c-43.9,29.3-228.1,154.9-410.2,280.4l-328.6,226L5848.6,4026.9z"/><path d="M1550.2,2411.3c-192.5-62.8-353.7-200.9-437.4-378.8c-77.4-165.3-77.4-399.7,2.1-569.2c64.9-138.1,190.4-267.9,326.5-334.8c142.3-69.1,452-69.1,594.3,0c136,67,261.6,196.7,326.4,334.8c46,98.4,56.5,148.6,56.5,286.7c-2.1,198.8-60.7,349.5-190.4,477.1c-133.9,131.8-263.7,188.3-458.3,194.6C1677.9,2426,1579.5,2421.8,1550.2,2411.3z"/><path d="M989.4,1015.5c-25.1-16.7-56.5-50.2-69.1-75.3c-12.6-23-169.5-466.7-349.5-987.7L244.4-991.4v-209.3c-2.1-177.9,4.2-223.9,46-309.7c27.2-54.4,71.2-110.9,94.2-123.5c25.1-12.5,311.8-106.7,638.3-207.2c326.5-100.4,598.5-186.2,602.7-192.5c6.3-6.3,14.6-313.9,20.9-686.4c6.3-372.5,20.9-742.9,31.4-820.3c41.9-295.1,159-408.1,332.7-318.1c79.5,39.8,140.2,163.2,180,349.5c37.7,180,115.1,1536,94.2,1632.3c-48.1,207.2-144.4,288.8-590.1,502.2c-194.6,94.2-353.7,180-353.7,194.6c0,31.4,307.6,1035.9,320.2,1048.4c6.3,6.3,77.4-77.5,159-188.3c79.5-108.8,167.4-209.3,194.6-223.9c50.2-27.2,719.9-121.4,870.5-123.5c215.6,0,311.8,161.1,169.5,280.4c-87.9,73.2-146.5,104.6-479.2,242.8L2293.1-26.6L2088,308.2c-113,182.1-223.9,370.4-244.8,418.5l-37.7,85.8l-345.3,117.2c-190.4,67-364.1,119.3-385.1,119.3S1014.5,1034.3,989.4,1015.5z"/><path d="M4264.4,904.6c-90-12.6-117.2-31.4-328.6-228.1c-127.7-119.3-230.2-226-230.2-236.5c0-10.5,125.6-18.8,290.9-18.8h290.9l83.7,251.1C4467.4,956.9,4477.9,931.8,4264.4,904.6z"/><path d="M2188.5,481.9c10.5-16.7,81.6-113,157-217.6l140.2-188.3l270-121.4c477.1-217.6,426.9-200.9,519-167.4c110.9,37.7,159,83.7,159,154.9c0,71.1-75.3,133.9-194.6,167.4c-46,12.6-223.9,43.9-395.5,71.1l-311.8,50.2l-180,140.2C2251.3,450.5,2178,498.6,2188.5,481.9z"/><path d="M3622,103.1c0-131.8,10.5-192.5,43.9-261.6c64.9-131.8,50.2-326.5-31.4-433.2c-71.1-94.2-215.5-169.5-391.3-200.9c-309.7-58.6-359.9-104.6-370.4-347.4c-6.3-85.8-2.1-196.7,4.2-244.8l14.7-90l516.9-23c305.5-14.6,550.4-35.6,600.6-52.3c46-14.6,119.3-62.8,161.1-104.6l79.5-79.5v-952.2c0-1015,4.2-1065.2,100.4-1117.5c25.1-12.5,79.5-23,125.6-23c102.6,0,182.1,71.2,200.9,184.2c6.3,41.9,12.6,456.2,12.6,920.8c0,788.9,2.1,847.5,39.8,920.8c23,41.9,48.1,104.6,58.6,140.2c10.5,37.7,41.9,73.2,75.3,90c48.1,23,56.5,39.8,56.5,121.4v92.1h94.2h92.1l6.3,117.2c8.4,142.3,41.9,175.8,236.5,232.3c113,31.4,272.1,35.6,1502.5,43.9l1374.9,6.3v-177.9v-180h83.7h83.7v-146.5v-146.5h125.5h125.6v-1025.4c0-874.7,4.2-1035.9,31.4-1088.2c39.8-77.4,90-104.6,194.6-104.6c69.1,0,94.2,12.6,138.1,64.9l54.4,64.9v1044.3v1044.2h73.2h73.2v146.5v146.5H9335h125.6v177.9V-960h219.7H9900v617.3v617.3H6761H3622V103.1z"/><path d="M2042-1359.7c196.7-98.3,330.6-221.8,378.8-347.4c31.4-81.6,33.5-140.2,8.4-652.9l-27.2-562.9l48.1-133.9c159-431.1,311.8-596.4,477.1-510.6c115.1,60.7,150.7,223.9,106.7,491.8c-29.3,182-389.2,1464.9-426.9,1523.5c-98.4,148.6-236.5,219.7-489.7,255.3C1862-1263.4,1857.8-1267.6,2042-1359.7z"/><path d="M181.6-1843.1c-35.6-31.4-58.6-79.5-67-136l-14.6-90l583.9,2.1c322.3,0,575.5,4.2,562.9,8.3c-39.8,16.7-975.2,261.6-994,261.6C242.3-1797.1,210.9-1818,181.6-1843.1z"/><path d="M106.3-2870.6c0-669.6,2.1-722,37.7-753.4c50.2-46,94.2-44,136,2.1c25.1,29.3,50.2,175.8,98.4,600.6c33.5,311.8,67,596.4,73.2,634.1l12.6,69.1l244.8-6.3l242.8-6.3l71.1-627.8c60.7-550.4,75.3-632,110.9-663.4c29.3-25.1,56.5-31.4,87.9-18.8l46,16.7l6.3,736.6l4.2,734.5h-586H106.3V-2870.6z"/></g></g>
</svg>